<svg id="katman_1" data-name="katman 1" xmlns="http://www.w3.org/2000/svg" viewBox="0 0 500 215"><defs><style>.cls-1,.cls-7{fill:#555554;}.cls-1,.cls-3,.cls-4{fill-rule:evenodd;}.cls-2,.cls-4{fill:#fff;}.cls-3{fill:#e20613;}.cls-5{fill:none;}.cls-6{fill:#e20a13;}.cls-8{isolation:isolate;}.cls-9{fill:#b3b3b3;}</style></defs><title>Çalışma Yüzeyi 1</title><path class="cls-1" d="M295.52,63.34a24.69,24.69,0,0,1-17,30.52h0l-33,9.42A24.71,24.71,0,0,1,215,86.3l-9.41-33a24.69,24.69,0,0,1,17-30.52h0l33-9.42a24.7,24.7,0,0,1,30.51,17h0Z"/><path class="cls-2" d="M238.77,105.7a26.25,26.25,0,0,1-25.13-19l-9.43-33a26.15,26.15,0,0,1,18-32.33h0l33-9.41a26.12,26.12,0,0,1,32.27,18l0,.05,9.42,33a26.18,26.18,0,0,1-18,32.33l-33,9.42a26.5,26.5,0,0,1-7.19,1m23.59-91.81a23,23,0,0,0-6.39.9L223,24.2a23.2,23.2,0,0,0-16,28.63l0,.09,9.41,33A23.2,23.2,0,0,0,245,102l.09,0,33-9.41a23.26,23.26,0,0,0,16-28.73l-9.42-33a23.35,23.35,0,0,0-22.34-16.85"/><path class="cls-1" d="M269.07,97.67A20.54,20.54,0,0,1,255,123.08l-27.47,7.84a20.56,20.56,0,0,1-25.42-14.12l-7.84-27.48a20.56,20.56,0,0,1,14.12-25.4l27.47-7.84A20.56,20.56,0,0,1,261.23,70.2Z"/><path class="cls-2" d="M221.83,133.13a22.05,22.05,0,0,1-21.12-15.95l-7.86-27.46A22,22,0,0,1,208,62.55l27.47-7.84a21.94,21.94,0,0,1,27.14,15l0,.07,7.85,27.46a22,22,0,0,1-15.11,27.16l-27.46,7.85a22.12,22.12,0,0,1-6,.84m19.65-76.44a20,20,0,0,0-5.27.74l-27.47,7.85a19.16,19.16,0,0,0-13.15,23.66l7.83,27.47a19.17,19.17,0,0,0,23.67,13.16l27.46-7.85a19.15,19.15,0,0,0,13.16-23.67h0L260,70.59a19.25,19.25,0,0,0-18.4-13.9"/><path class="cls-3" d="M227.35,70.13a13,13,0,0,1-8.88,16.09l-17.36,5A13,13,0,0,1,185,82.35v0L180,65a13,13,0,0,1,8.89-16.09l17.37-5a13,13,0,0,1,16.1,8.88v0Z"/><path class="cls-2" d="M197.5,93.14a14.47,14.47,0,0,1-13.85-10.42l-5-17.36a14.43,14.43,0,0,1,9.85-17.85l17.36-5a13.94,13.94,0,0,1,4-.59,14.53,14.53,0,0,1,13.88,10.44l5,17.36a14.43,14.43,0,0,1-9.85,17.84l-17.37,5a14.63,14.63,0,0,1-4,.56m12.35-48.36a11.86,11.86,0,0,0-3.19.44l-17.37,5a11.57,11.57,0,0,0-7.92,14.33h0l5,17.35a11.61,11.61,0,0,0,14.35,7.93l17.37-5A11.6,11.6,0,0,0,226,70.51l-5-17.35a11.62,11.62,0,0,0-11.14-8.38"/><path class="cls-2" d="M210.37,78.79A7.28,7.28,0,1,1,217.62,71a7.13,7.13,0,0,1-1.74,5.28,7.25,7.25,0,0,1-5,2.5h-.53m0-12.62H210a5.15,5.15,0,1,0,.41,0"/><path class="cls-2" d="M210.35,82.56a11.09,11.09,0,1,1,.81,0h-.81m0-20.17h-.67a9,9,0,1,0,.67,0"/><path class="cls-4" d="M213.09,98.46c-1.05-1.09-2.16-2-3.18-3.12.67-2,4.28-2.39,4.55.11.08.66-1,2.34-1.37,3"/><path class="cls-4" d="M212.86,70.3c-.26.86-3.53,3-4.41,2.16-1.16-1.09-.3-3.66,1.36-4.14a3.1,3.1,0,0,1,3.05,2"/><path class="cls-4" d="M225.1,112.07a87.39,87.39,0,0,0-3.62-13.2,37.3,37.3,0,0,0-2.09-4.65c-.4-.72-1.09-1.35-1.52-2a108.59,108.59,0,0,1-6.14-11c-1.83-3.63-4-7-4.27-10.37.25.48.15,1.29.6,1.81.8,1,3.2-.12,4.44-1.17a4.68,4.68,0,0,0,.92-1.32,84.33,84.33,0,0,0,8.32,13.63c.82,1,2.43,3.6,3.34,3S224,82.92,223.62,82c-.79-1.82-1.84-3.67-1.92-5-.07-1.57,1.8-4.07,4.46-4.44a4.42,4.42,0,0,1,3.74,2.11c.35.59.45,1.42.77,2.12,1,2,2.17,3.89,3,5.87-.34-1.08-.82-2.36-1.42-3.79-.89-2.14-2.41-3.86-1.32-5.3a6.85,6.85,0,0,1,4.84-1.77c3.34.81,4.4,7.68,7.07,10.12-.92-2.21-2.53-4.61-3.25-6.75,1.3-2.09,4.41-3.19,6.07-1.55a38.8,38.8,0,0,1,2.77,3.86c2.69,3.48,5.78,7.2,8.37,10.93A46.67,46.67,0,0,1,263.38,101c.59,1.92.89,4.43,2.57,6.23,2.18,2.37,5.1,4.32,7.56,6.38,2.64,2.25,5.17,4.41,7.56,6.41-3.44,7.5-11.18,15.42-22.15,19.54-5.12-4.67-9.18-11.24-15.27-12.5-.65-.13-1.35,0-2-.18a18,18,0,0,1-8.86-4.86c-1.32-1.21-2.66-2.52-4-3.88a30.09,30.09,0,0,1-3.9-4c-1.08-1.56-1.73-3.17-2.65-4.54-2.74-4.06-5.78-6.72-8.67-10.57,0-1.11,1.55-2.48,1.38-3.73-.31-2.21-3.29-2.93-5-.89-.28-1.9,3.25-2.24,4.61-2a10.89,10.89,0,0,1,3.74,1.38c1,1,2,3.21,2.65,4.74,1.86,4.4,2.57,9.55,4.19,13.5"/><path class="cls-5" d="M235.43,54.72,208,62.55a22,22,0,0,0-15.1,27.17l7.84,27.46a22,22,0,0,0,27.16,15.11l27.47-7.85a22,22,0,0,0,15.1-27.16l-7.85-27.47a21.9,21.9,0,0,0-27-15.12l-.12,0"/><path class="cls-6" d="M269.63,180.18a4.51,4.51,0,0,1,1.7.33,4.38,4.38,0,0,1,2.6,3.18,3.11,3.11,0,0,1,.09.86,4.19,4.19,0,0,1-1.28,3.09,4.35,4.35,0,0,1-3.11,1.28,4.43,4.43,0,0,1-4.35-4.37,4.37,4.37,0,0,1,.74-2.43,4.06,4.06,0,0,1,2-1.63,4.24,4.24,0,0,1,1.65-.31m3.8,4.41a3.71,3.71,0,0,0-1.08-2.73,3.62,3.62,0,0,0-2.72-1.11,3.55,3.55,0,0,0-2.63,1.07,3.79,3.79,0,0,0-1.16,2.73,3.6,3.6,0,0,0,1.13,2.66,3.56,3.56,0,0,0,2.64,1.13A3.92,3.92,0,0,0,273.2,186a3.58,3.58,0,0,0,.27-1.44M269.75,182c1.37,0,2.06.46,2.06,1.37a1.24,1.24,0,0,1-1.12,1.33L271.8,187h-1.06l-1-2.12h-.92V187h-.94v-5Zm-.17.61h-.76v1.64h.79c.84,0,1.25-.26,1.25-.78a.69.69,0,0,0-.3-.65,1.74,1.74,0,0,0-1-.21"/><polygon class="cls-7" points="77.41 162.82 77.41 147.27 75.77 145.62 67.67 145.62 66.04 147.27 66.04 196.4 67.67 198.06 75.77 198.06 77.41 196.4 77.41 181.63 68.65 171.85 77.41 162.82"/><path class="cls-7" d="M108.64,145.83H96.55l-24.5,25.43v1.13L77.7,179c15.48,16.69,17.37,18.84,18.89,18.84h10.54l1.28-1.29L84.48,172.1l24.16-24.67Z"/><path class="cls-7" d="M115.28,180.48c.21,4.2,3,10.49,12.58,10.49,6.35,0,9.15-2.23,11-5.31h10.49c-2.1,4.19-7.13,12.3-21.25,12.3-16.76,0-22.91-9.71-22.91-19.56,0-12.37,9.15-20.27,22.28-20.27,16.49,0,22.72,10.13,22.72,21v1.39Zm24.87-6.14c-1.12-7.47-7.81-9.63-12.49-9.63s-10.7,2.08-12.38,9.63Z"/><path class="cls-7" d="M274.36,191.17H245.23l28.18-25.56v-6.15H234.63v6.72h26.23l-27.66,25.1v6.6h34.6c5.36-.24,6.37-5,6.56-6.71"/><path class="cls-7" d="M199.13,191.17l28.19-25.56v-6.15H194.75s-6.22.25-6.22,6.69h26.23l-27.66,25.1v6.6h41.19v-6.71Z"/><path class="cls-7" d="M179.54,158.44c-7.78,0-11.77,4.14-14.53,8.5h-.16v-7.49h-5.32c-.58,0-4.56.47-4.71,4.53v34h10v-18.6a12.18,12.18,0,0,1,11.72-12.64h.55a17.77,17.77,0,0,1,6.41.57v-8.5a24.38,24.38,0,0,0-4-.36"/><g class="cls-8"><g class="cls-8"><path class="cls-9" d="M311.15,169.31v3.56c0,6.79-3.19,9.75-10.41,9.75h-13v15h-5.13V159.55h18.17C308,159.55,311.15,162.52,311.15,169.31ZM306,170c0-4.53-1.67-6-6.57-6H287.7V178.2h11.75c4.9,0,6.57-1.51,6.57-6Z"/><path class="cls-9" d="M349.26,169.31v18.54c0,6.8-3.18,9.76-10.35,9.76H320.63V159.55h18.28C346.08,159.55,349.26,162.52,349.26,169.31Zm-5.12.7c0-4.53-1.67-6-6.58-6H325.75v29.22h11.81c4.91,0,6.58-1.56,6.58-6Z"/></g><g class="cls-8"><path class="cls-9" d="M372,180.41h-5.72v17.2h-5.12V159.55h5.12v16.39h5.61l12.89-16.39h6l-14.34,18.54,15.69,19.52H386Z"/></g><g class="cls-8"><path class="cls-9" d="M398.7,188.5v-.43l5.12-.65v.38c0,4.37,1.62,5.93,6.53,5.93H417c4.91,0,6.58-1.56,6.58-6v-.81c0-3.61-1.24-4.69-6-5.39l-9.6-1.4c-6.74-1-9.11-3.23-9.11-8.9v-2.42c0-6.79,3.13-9.76,10.35-9.76h8.84c7.22,0,10.4,3,10.4,9.65a.87.87,0,0,1-.05.43l-5.07.65v-.38c0-4.42-1.67-5.93-6.57-5.93h-6.2c-4.91,0-6.58,1.57-6.58,6V170c0,3.66,1.13,4.63,6,5.39l9.65,1.4c6.74,1,9.06,3.24,9.06,8.95v2.64c0,6.79-3.18,9.76-10.35,9.76h-9.33C401.83,198.15,398.7,195.18,398.7,188.5Z"/></g></g></svg>